<?xml version="1.0" encoding="UTF-8"?><svg xmlns="http://www.w3.org/2000/svg" viewBox="0 0 181.9 48"><defs><style>.d{fill:#fff;}</style></defs><g id="a"/><g id="b"><g id="c"><g><g><path class="d" d="M9.71,19.67H30.65V1h8.91V47.17h-8.91V27.47H9.71v-7.8Z"/><rect class="d" y=".72" width="9.78" height="9.78"/><rect class="d" y="37.43" width="9.78" height="9.78"/><g><path class="d" d="M64.81,48c-2.77,0-5.25-.48-7.46-1.43-2.21-.95-4.08-2.24-5.61-3.86-1.54-1.62-2.71-3.49-3.54-5.61-.82-2.12-1.23-4.35-1.23-6.68s.41-4.63,1.23-6.75c.82-2.12,2-3.99,3.54-5.61,1.53-1.62,3.41-2.91,5.61-3.86,2.21-.95,4.69-1.43,7.46-1.43s5.24,.48,7.43,1.43c2.18,.95,4.04,2.24,5.58,3.86,1.53,1.62,2.71,3.49,3.54,5.61,.82,2.12,1.23,4.37,1.23,6.75s-.41,4.56-1.23,6.68c-.82,2.12-1.99,3.99-3.5,5.61-1.51,1.62-3.37,2.91-5.58,3.86-2.21,.95-4.69,1.43-7.46,1.43Zm-8.89-17.58c0,1.51,.23,2.89,.68,4.12,.45,1.23,1.08,2.3,1.88,3.21,.8,.91,1.74,1.61,2.82,2.11,1.08,.5,2.25,.75,3.5,.75s2.42-.25,3.5-.75c1.08-.5,2.02-1.2,2.82-2.11,.8-.91,1.43-1.99,1.88-3.24,.45-1.25,.68-2.64,.68-4.15s-.23-2.83-.68-4.09c-.45-1.25-1.08-2.34-1.88-3.24-.8-.91-1.74-1.61-2.82-2.11-1.08-.5-2.25-.75-3.5-.75s-2.42,.26-3.5,.78c-1.08,.52-2.02,1.23-2.82,2.14-.8,.91-1.43,1.99-1.88,3.24-.45,1.25-.68,2.62-.68,4.09Z"/><path class="d" d="M87.71,0h8.69V36.45c0,1.25,.3,2.23,.91,2.92,.61,.69,1.47,1.04,2.59,1.04,.52,0,1.09-.09,1.72-.26,.63-.17,1.22-.39,1.78-.65l1.17,6.62c-1.17,.56-2.53,1-4.09,1.3-1.56,.3-2.96,.45-4.22,.45-2.72,0-4.83-.72-6.32-2.17-1.49-1.45-2.24-3.51-2.24-6.19V0Z"/><path class="d" d="M123.38,48c-2.77,0-5.25-.48-7.46-1.43-2.21-.95-4.08-2.24-5.61-3.86-1.54-1.62-2.71-3.49-3.54-5.61-.82-2.12-1.23-4.35-1.23-6.68s.41-4.63,1.23-6.75c.82-2.12,2-3.99,3.54-5.61,1.53-1.62,3.41-2.91,5.61-3.86,2.21-.95,4.69-1.43,7.46-1.43s5.24,.48,7.43,1.43c2.18,.95,4.04,2.24,5.58,3.86,1.53,1.62,2.71,3.49,3.54,5.61,.82,2.12,1.23,4.37,1.23,6.75s-.41,4.56-1.23,6.68c-.82,2.12-1.99,3.99-3.5,5.61-1.51,1.62-3.37,2.91-5.58,3.86-2.21,.95-4.69,1.43-7.46,1.43Zm-8.89-17.58c0,1.51,.23,2.89,.68,4.12,.45,1.23,1.08,2.3,1.88,3.21,.8,.91,1.74,1.61,2.82,2.11,1.08,.5,2.25,.75,3.5,.75s2.42-.25,3.5-.75c1.08-.5,2.02-1.2,2.82-2.11,.8-.91,1.43-1.99,1.88-3.24,.45-1.25,.68-2.64,.68-4.15s-.23-2.83-.68-4.09c-.45-1.25-1.08-2.34-1.88-3.24-.8-.91-1.74-1.61-2.82-2.11-1.08-.5-2.25-.75-3.5-.75s-2.42,.26-3.5,.78c-1.08,.52-2.02,1.23-2.82,2.14-.8,.91-1.43,1.99-1.88,3.24-.45,1.25-.68,2.62-.68,4.09Z"/><path class="d" d="M177.93,47.35h-8.69V28.28c0-2.72-.48-4.71-1.43-5.97-.95-1.25-2.27-1.88-3.96-1.88-.87,0-1.75,.17-2.66,.52-.91,.35-1.76,.83-2.56,1.46-.8,.63-1.52,1.37-2.17,2.24-.65,.87-1.12,1.82-1.43,2.85v19.85h-8.69V13.36h7.85v6.29c1.25-2.16,3.07-3.85,5.45-5.06,2.38-1.21,5.06-1.82,8.04-1.82,2.12,0,3.85,.39,5.19,1.17,1.34,.78,2.38,1.79,3.11,3.05,.73,1.25,1.24,2.68,1.52,4.28,.28,1.6,.42,3.22,.42,4.86v21.21Z"/></g></g><g><path class="d" d="M176.73,8.96c.27-.06,.67-.09,1.04-.09,.58,0,.95,.11,1.21,.34,.21,.19,.33,.47,.33,.8,0,.55-.35,.92-.79,1.07v.02c.32,.11,.52,.41,.62,.85,.14,.59,.24,.99,.32,1.15h-.56c-.07-.12-.16-.48-.28-1-.12-.58-.35-.8-.84-.82h-.51v1.82h-.54v-4.14Zm.54,1.91h.55c.58,0,.95-.32,.95-.8,0-.54-.39-.78-.96-.78-.26,0-.45,.02-.54,.05v1.53Z"/><path class="d" d="M177.93,14.95c-2.19,0-3.97-1.78-3.97-3.97s1.78-3.97,3.97-3.97,3.97,1.78,3.97,3.97-1.78,3.97-3.97,3.97Zm0-7.14c-1.75,0-3.17,1.42-3.17,3.17s1.42,3.17,3.17,3.17,3.17-1.42,3.17-3.17-1.42-3.17-3.17-3.17Z"/></g></g></g></g></svg>